<?xml version="1.0" encoding="UTF-8" standalone="no"?>
<!-- Created with Inkscape (http://www.inkscape.org/) -->

<svg
   width="48"
   height="48"
   viewBox="0 0 12.7 12.7"
   version="1.1"
   id="svg5"
   inkscape:version="1.1.1 (3bf5ae0d25, 2021-09-20)"
   sodipodi:docname="icon.svg"
   xmlns:inkscape="http://www.inkscape.org/namespaces/inkscape"
   xmlns:sodipodi="http://sodipodi.sourceforge.net/DTD/sodipodi-0.dtd"
   xmlns="http://www.w3.org/2000/svg"
   xmlns:svg="http://www.w3.org/2000/svg">
  <sodipodi:namedview
     id="namedview7"
     pagecolor="#ffffff"
     bordercolor="#666666"
     borderopacity="1.0"
     inkscape:pageshadow="2"
     inkscape:pageopacity="0.0"
     inkscape:pagecheckerboard="0"
     inkscape:document-units="mm"
     showgrid="true"
     units="px"
     inkscape:zoom="16"
     inkscape:cx="18.125"
     inkscape:cy="24.15625"
     inkscape:window-width="1920"
     inkscape:window-height="1031"
     inkscape:window-x="0"
     inkscape:window-y="0"
     inkscape:window-maximized="1"
     inkscape:current-layer="layer1"
     guidetolerance="20"
     inkscape:snap-grids="true"
     objecttolerance="10000"
     inkscape:snap-path-clip="true"
     inkscape:snap-path-mask="true">
    <inkscape:grid
       type="xygrid"
       id="grid9"
       originx="6.35"
       originy="6.35" />
  </sodipodi:namedview>
  <defs
     id="defs2" />
  <g
     inkscape:label="Layer 1"
     inkscape:groupmode="layer"
     id="layer1">
    <rect
       style="fill:#decd87;stroke-width:0.264583"
       id="rect3501"
       width="12.7"
       height="12.7"
       x="1.9073487e-07"
       y="0"
       rx="3.4621789e-07"
       ry="1.0583333" />
    <path
       style="fill:#008000;stroke-width:0.0165899"
       d="M 5.295817,10.05539 V 7.411022 H 2.6479085 C 1.1915586,7.411022 0,7.4072324 0,7.4026006 0,7.3979689 0.1764844,7.1592415 0.392188,6.872088 L 0.78437701,6.3499968 0.392188,5.8278994 C 0.1764844,5.540746 0,5.3020153 0,5.2973868 c 0,-0.00463 1.1915586,-0.00841 2.6479085,-0.00841 H 5.295817 V 2.6444858 0 L 5.7910627,0.37134584 C 6.0634476,0.57558611 6.301873,0.7523987 6.3208962,0.7642628 c 0.031827,0.0198494 0.07644,-0.00978 0.5589377,-0.37122834 L 7.4041831,2.3499621e-4 V 2.6446033 5.2889716 h 2.6479079 c 1.45635,0 2.647909,0.00379 2.647909,0.00842 0,0.00463 -0.176485,0.2433592 -0.392189,0.5305127 l -0.392188,0.5220912 0.392188,0.5220973 C 12.523515,7.1592463 12.7,7.397977 12.7,7.4026055 c 0,0.00463 -1.191559,0.00842 -2.647909,0.00842 H 7.4041831 V 10.055514 12.7 L 6.9089377,12.328649 c -0.272385,-0.20424 -0.5108103,-0.381053 -0.5298338,-0.392917 -0.031827,-0.01985 -0.07644,0.0098 -0.5589376,0.371228 L 5.295817,12.699759 Z m 1.1689328,1.558185 c 0.056051,-0.05187 0.1204719,-0.190235 0.1424436,-0.305933 0.010734,-0.05651 0.016728,-0.913147 0.016728,-2.3902376 V 6.6152531 h 2.4246159 c 2.6600497,0 2.4715547,0.00731 2.5614397,-0.099364 0.08718,-0.1034711 0.07822,-0.2467411 -0.02217,-0.3542127 L 11.52369,6.0930291 9.073805,6.0887182 6.6239191,6.0844073 V 3.7824252 c 0,-1.4769817 -0.00599,-2.3335582 -0.016728,-2.3900759 -0.02197,-0.115697 -0.08639,-0.254058 -0.142441,-0.3059323 -0.062318,-0.057675 -0.1671814,-0.057675 -0.2294995,0 C 6.1792006,1.138292 6.1147787,1.2766523 6.092807,1.3923493 6.082073,1.4488663 6.076079,2.3054435 6.076079,3.7824252 v 2.301989 l -2.4498858,0.00431 -2.4498856,0.00431 -0.064121,0.068647 C 1.0118044,6.2691548 1.0028374,6.4124248 1.0900199,6.5158959 1.179901,6.6225716 0.99140472,6.61526 3.6514598,6.61526 h 2.4246155 v 2.3021514 c 0,1.4770906 0.00599,2.3337206 0.016728,2.3902376 0.021972,0.115698 0.086393,0.254058 0.1424434,0.305933 0.033127,0.03066 0.063199,0.04155 0.1147494,0.04155 0.05155,0 0.081622,-0.01089 0.1147497,-0.04155 z"
       id="path4864" />
    <path
       style="fill:#00ffff;stroke-width:0.0625"
       d=""
       id="path5465"
       transform="scale(0.26458333)" />
    <path
       style="fill:#00ffff;stroke-width:0.0625"
       d=""
       id="path5504"
       transform="scale(0.26458333)" />
    <path
       style="fill:#00ffff;stroke-width:0.0625"
       d=""
       id="path5543"
       transform="scale(0.26458333)" />
    <path
       style="fill:#00ffff;stroke-width:0.0625"
       d=""
       id="path5582"
       transform="scale(0.26458333)" />
    <path
       style="fill:#00ffff;stroke-width:0.0625"
       d=""
       id="path6003"
       transform="scale(0.26458333)" />
    <path
       style="fill:#00ffff;stroke-width:0.0625"
       d=""
       id="path6042"
       transform="scale(0.26458333)" />
    <path
       style="fill:#00ffff;stroke-width:0.0625"
       d=""
       id="path6081"
       transform="scale(0.26458333)" />
    <path
       style="fill:#00ffff;stroke-width:0.0625"
       d=""
       id="path6120"
       transform="scale(0.26458333)" />
    <path
       style="fill:#55ffdd;stroke-width:0.0165064"
       d="m 6.2386108,11.596191 c -0.023838,-0.02501 -0.064151,-0.09012 -0.089584,-0.144694 L 6.1027848,11.352279 6.0923585,10.59987 C 6.0866247,10.186045 6.0810649,9.120952 6.0800025,8.2329969 L 6.0780781,6.6185327 3.7013475,6.609177 C 2.3616897,6.6039039 1.2890955,6.5931539 1.2432099,6.5845417 1.1516945,6.5673623 1.0976792,6.5151248 1.0669992,6.414132 1.0442013,6.3390856 1.0657523,6.2663154 1.1391706,6.1704428 l 0.05244,-0.06849 h 1.7732323 c 0.975278,0 2.0747311,-0.00493 2.4432299,-0.010956 l 0.6699969,-0.010959 0.00192,-1.6137493 c 0.00105,-0.8875622 0.00662,-1.9523335 0.012356,-2.3661584 l 0.010426,-0.7524088 0.046242,-0.099219 c 0.066419,-0.1424943 0.1167849,-0.190169 0.200913,-0.190169 0.084128,0 0.1344943,0.047675 0.2009051,0.1901693 l 0.046242,0.099219 0.010385,0.7689453 c 0.00571,0.42292 0.011273,1.4876913 0.012356,2.3661584 l 0.00198,1.5972129 0.6699973,0.010959 c 0.3684984,0.00603 1.4679518,0.010956 2.4432295,0.010956 H 11.50825 l 0.05334,0.069657 c 0.07171,0.093638 0.09491,0.1742448 0.07098,0.2465494 -0.03276,0.09899 -0.08621,0.1495427 -0.175915,0.1663821 -0.04588,0.00861 -1.118479,0.019365 -2.4581371,0.024635 l -2.3767305,0.00936 -0.00198,1.5979278 c -0.00108,0.8788601 -0.00665,1.9439535 -0.012356,2.3668725 l -0.010384,0.768946 -0.046242,0.09922 c -0.066408,0.142494 -0.1167741,0.190169 -0.2009024,0.190169 -0.052667,0 -0.077742,-0.01024 -0.1113211,-0.04548 z"
       id="path11090" />
  </g>
</svg>
